<svg width="320" height="80" viewBox="0 0 320 80" fill="none" xmlns="http://www.w3.org/2000/svg">
<path d="M0 20C0 8.95431 8.95431 0 20 0H300C311.046 0 320 8.95431 320 20V80H0V20Z" fill="#1F99FF"/>
<mask id="mask0_0_263" style="mask-type:alpha" maskUnits="userSpaceOnUse" x="0" y="0" width="320" height="80">
<path d="M0 20C0 8.95431 8.95431 0 20 0H300C311.046 0 320 8.95431 320 20V80H0V20Z" fill="white"/>
</mask>
<g mask="url(#mask0_0_263)">
<g opacity="0.204983">
<path d="M278.587 -106.64C271.286 -48.4438 270.118 23.3778 294.367 78.705C312.493 33.0246 340.722 -38.7985 364.498 -99.4001C376.482 -129.947 387.335 -157.643 395.191 -177.701C399.12 -187.731 402.299 -195.851 404.496 -201.464C405.595 -204.27 406.448 -206.45 407.026 -207.928L407.641 -209.5H299.368C299.353 -209.452 299.338 -209.399 299.321 -209.342C299.22 -209.001 299.071 -208.494 298.879 -207.827C298.495 -206.492 297.937 -204.52 297.245 -201.969C295.861 -196.868 293.939 -189.456 291.787 -180.213C287.483 -161.725 282.26 -135.919 278.587 -106.64Z" stroke="#092D4C"/>
<path d="M239.248 -106.64C231.947 -48.4438 230.779 23.3778 255.028 78.705C273.154 33.0246 301.384 -38.7985 325.159 -99.4001C337.143 -129.947 347.996 -157.643 355.853 -177.701C359.781 -187.731 362.96 -195.851 365.157 -201.464C366.256 -204.27 367.109 -206.45 367.687 -207.928L368.303 -209.5H260.029C260.014 -209.452 259.999 -209.399 259.982 -209.342C259.881 -209.001 259.732 -208.494 259.54 -207.827C259.156 -206.492 258.598 -204.52 257.906 -201.969C256.522 -196.868 254.6 -189.456 252.448 -180.213C248.144 -161.725 242.921 -135.919 239.248 -106.64Z" stroke="#092D4C"/>
<path d="M199.909 -106.64C192.608 -48.4438 191.44 23.3778 215.689 78.705C233.815 33.0246 262.045 -38.7985 285.82 -99.4001C297.805 -129.947 308.657 -157.643 316.514 -177.701C320.442 -187.731 323.621 -195.851 325.818 -201.464C326.917 -204.27 327.77 -206.45 328.348 -207.928L328.964 -209.5H220.69C220.676 -209.452 220.66 -209.399 220.643 -209.342C220.542 -209.001 220.393 -208.494 220.201 -207.827C219.817 -206.492 219.26 -204.52 218.568 -201.969C217.184 -196.868 215.261 -189.456 213.109 -180.213C208.805 -161.725 203.582 -135.919 199.909 -106.64Z" stroke="#092D4C"/>
</g>
</g>
</svg>
