<svg width="15" height="9" viewBox="0 0 15 9" fill="none" xmlns="http://www.w3.org/2000/svg">
<path d="M4.39723 8.46793L0.111514 4.51704C0.0445499 4.45007 -9.25064e-05 4.34963 -9.25064e-05 4.24918C-9.25064e-05 4.14873 0.0445499 4.05945 0.111514 3.99248L4.39723 0.0862274C4.50884 -0.00305845 4.65393 -0.0253799 4.78786 0.0304237C4.92179 0.0862274 4.99991 0.208995 4.99991 0.354085V2.85409H13.9285C14.1294 2.85409 14.2856 3.01034 14.2856 3.21123V5.35409C14.2856 5.55498 14.1294 5.71123 13.9285 5.71123H4.99991V8.21124C4.99991 8.35633 4.91063 8.47909 4.78786 8.5349C4.65393 8.5907 4.50884 8.56838 4.39723 8.46793Z" fill="#818D98"/>
</svg>
