<svg width="15" height="10" viewBox="0 0 15 10" fill="none" xmlns="http://www.w3.org/2000/svg">
<path d="M10.3528 9.0424L14.6385 5.0915C14.7055 5.02454 14.7501 4.92409 14.7501 4.82364C14.7501 4.7232 14.7055 4.63391 14.6385 4.56694L10.3528 0.66069C10.2412 0.571404 10.0961 0.549083 9.96214 0.604887C9.82821 0.66069 9.75009 0.783458 9.75009 0.928548V3.42855H0.821499C0.620606 3.42855 0.464355 3.5848 0.464355 3.78569V5.92855C0.464355 6.12945 0.620606 6.2857 0.821499 6.2857H9.75009V8.7857C9.75009 8.93079 9.83937 9.05356 9.96214 9.10936C10.0961 9.16516 10.2412 9.14284 10.3528 9.0424Z" fill="white"/>
</svg>
