<svg width="416" height="840" viewBox="0 0 416 840" fill="none" xmlns="http://www.w3.org/2000/svg">
<path d="M305.841 218.797C279.727 413.416 275.617 654.022 363.33 838.774C427.792 686.906 528.939 446.284 614.048 243.445C656.699 141.797 695.321 49.6377 723.281 -17.1098C737.261 -50.4836 748.576 -77.5044 756.395 -96.1818C760.305 -105.52 763.341 -112.773 765.399 -117.691L767.741 -123.287L768.249 -124.5H380.104C380.096 -124.473 380.087 -124.445 380.077 -124.415C379.985 -124.128 379.848 -123.699 379.669 -123.131C379.309 -121.995 378.779 -120.304 378.094 -118.081C376.725 -113.635 374.74 -107.066 372.275 -98.5736C367.346 -81.5881 360.502 -56.9085 352.839 -26.1361C337.514 35.4094 318.92 121.324 305.841 218.797Z" stroke="#1C89E6"/>
<path d="M167.841 218.797C141.727 413.416 137.617 654.022 225.33 838.774C289.792 686.906 390.939 446.284 476.048 243.445C518.699 141.797 557.321 49.6377 585.281 -17.1098C599.261 -50.4836 610.576 -77.5044 618.395 -96.1818C622.305 -105.52 625.341 -112.773 627.399 -117.691L629.741 -123.287L630.249 -124.5H242.104C242.096 -124.473 242.087 -124.445 242.077 -124.415C241.985 -124.128 241.848 -123.699 241.669 -123.131C241.309 -121.995 240.779 -120.304 240.094 -118.081C238.725 -113.635 236.74 -107.066 234.275 -98.5736C229.346 -81.5881 222.502 -56.9085 214.839 -26.1361C199.514 35.4094 180.92 121.324 167.841 218.797Z" stroke="#1C89E6"/>
<path d="M26.8408 218.797C0.727386 413.416 -3.38281 654.022 84.3304 838.774C148.792 686.906 249.939 446.284 335.048 243.445C377.699 141.797 416.321 49.6377 444.281 -17.1098C458.261 -50.4836 469.576 -77.5044 477.395 -96.1818C481.305 -105.52 484.341 -112.773 486.399 -117.691L488.741 -123.287L489.249 -124.5H101.104C101.096 -124.473 101.087 -124.445 101.077 -124.415C100.985 -124.128 100.848 -123.699 100.669 -123.131C100.309 -121.995 99.7789 -120.304 99.0944 -118.081C97.7252 -113.635 95.7397 -107.066 93.2753 -98.5736C88.3464 -81.5881 81.5016 -56.9085 73.8392 -26.1361C58.5142 35.4094 39.9195 121.324 26.8408 218.797Z" stroke="#1C89E6"/>
</svg>
