<?xml version="1.0" encoding="utf-8"?>
<svg width="568px" height="1041px" viewBox="0 0 568 1041" version="1.1" xmlns:xlink="http://www.w3.org/1999/xlink" xmlns="http://www.w3.org/2000/svg">
  <defs>
    <path d="M896.503 -7.80626e-15L442.702 -7.80626e-15C442.702 -7.80626e-15 217.79 693.596 423.602 1124.99C573.855 771.029 896.503 -7.80626e-15 896.503 -7.80626e-15Z" id="path_1" />
    <path d="M735.622 9.91821e-05L281.822 9.91821e-05C281.822 9.91821e-05 56.909 693.596 262.722 1124.99C412.974 771.029 735.622 9.91821e-05 735.622 9.91821e-05Z" id="path_2" />
    <path d="M571.243 9.91821e-05L117.443 9.91821e-05C117.443 9.91821e-05 -107.47 693.596 98.3427 1124.99C248.595 771.029 571.243 9.91821e-05 571.243 9.91821e-05Z" id="path_3" />
    <clipPath id="clip_1">
      <use xlink:href="#path_1" />
    </clipPath>
    <clipPath id="clip_2">
      <use xlink:href="#path_2" />
    </clipPath>
    <clipPath id="clip_3">
      <use xlink:href="#path_3" />
    </clipPath>
  </defs>
  <g id="Group" transform="translate(0 -9.918213E-05)">
    <g id="Rectangle-Copy-8">
      <g clip-path="url(#clip_1)">
        <use xlink:href="#path_1" fill="none" stroke="#EDF1F5" stroke-width="2" />
      </g>
    </g>
    <g id="Rectangle-Copy-11">
      <g clip-path="url(#clip_2)">
        <use xlink:href="#path_2" fill="none" stroke="#EDF1F5" stroke-width="2" />
      </g>
    </g>
    <g id="Rectangle-Copy-12">
      <g clip-path="url(#clip_3)">
        <use xlink:href="#path_3" fill="none" stroke="#EDF1F5" stroke-width="2" />
      </g>
    </g>
  </g>
</svg>