<?xml version="1.0" encoding="utf-8"?>
<svg width="21px" height="13px" viewBox="0 0 21 13" version="1.1" xmlns:xlink="http://www.w3.org/1999/xlink" xmlns="http://www.w3.org/2000/svg">
  <g id="Group-13" transform="matrix(-1 2.5351817E-06 -2.5351817E-06 -1 20.5 12.166626)">
    <path d="M15.6535 11.6666L4.34602 11.6666Q4.2748 11.6666 4.20375 11.6616Q4.1327 11.6565 4.0622 11.6464Q3.99169 11.6363 3.92209 11.6212Q3.85248 11.6061 3.78413 11.586Q3.71577 11.566 3.64902 11.5412Q3.58226 11.5163 3.51744 11.4868Q3.45262 11.4573 3.39007 11.4232Q3.32751 11.3892 3.26754 11.3507Q3.20757 11.3123 3.15049 11.2697Q3.0934 11.2271 3.03949 11.1806Q2.98559 11.134 2.93513 11.0837Q2.88467 11.0335 2.83792 10.9797Q2.79117 10.926 2.74836 10.8691Q2.70555 10.8121 2.6669 10.7523Q2.62825 10.6925 2.59396 10.6301Q2.55967 10.5676 2.52991 10.5029Q2.50014 10.4382 2.47506 10.3715Q2.44998 10.3049 2.42971 10.2366Q2.40943 10.1683 2.39407 10.0988Q2.37871 10.0292 2.36834 9.95876Q2.35796 9.88829 2.35263 9.81726Q2.3473 9.74623 2.34704 9.67501Q2.34677 9.60378 2.35158 9.53272Q2.35639 9.46166 2.36624 9.39111Q2.37609 9.32057 2.39094 9.25091Q2.40579 9.18125 2.42556 9.11282Q2.44532 9.04439 2.46991 8.97754Q2.4945 8.9107 2.52379 8.84577Q2.55307 8.78084 2.5869 8.71816Q2.62073 8.65548 2.65894 8.59537Q2.69714 8.53526 2.73953 8.47801Q2.78192 8.42077 2.82827 8.36669L8.482 1.77067Q8.55217 1.68881 8.63074 1.61497Q8.70931 1.54112 8.79536 1.47616Q8.88142 1.4112 8.97396 1.35587Q9.0665 1.30054 9.16446 1.25549Q9.26242 1.21043 9.36465 1.17618Q9.46689 1.14192 9.57222 1.11886Q9.67754 1.0958 9.78474 1.0842Q9.89193 1.0726 9.99976 1.0726Q10.1076 1.0726 10.2148 1.0842Q10.322 1.0958 10.4273 1.11886Q10.5326 1.14192 10.6349 1.17618Q10.7371 1.21043 10.8351 1.25549Q10.933 1.30054 11.0256 1.35587Q11.1181 1.4112 11.2041 1.47616Q11.2902 1.54112 11.3688 1.61497Q11.4473 1.68881 11.5175 1.77067L17.1712 8.36669Q17.2176 8.42077 17.26 8.47801Q17.3024 8.53526 17.3406 8.59537Q17.3788 8.65548 17.4126 8.71816Q17.4464 8.78084 17.4757 8.84577Q17.505 8.9107 17.5296 8.97754Q17.5542 9.04439 17.574 9.11282Q17.5937 9.18125 17.6086 9.25091Q17.6234 9.32057 17.6333 9.39111Q17.6431 9.46166 17.6479 9.53272Q17.6527 9.60378 17.6525 9.67501Q17.6522 9.74623 17.6469 9.81726Q17.6415 9.88829 17.6312 9.95876Q17.6208 10.0292 17.6054 10.0988Q17.5901 10.1683 17.5698 10.2366Q17.5495 10.3049 17.5245 10.3715Q17.4994 10.4382 17.4696 10.5029Q17.4398 10.5676 17.4056 10.6301Q17.3713 10.6925 17.3326 10.7523Q17.294 10.8121 17.2512 10.8691Q17.2083 10.926 17.1616 10.9797Q17.1148 11.0335 17.0644 11.0837Q17.0139 11.134 16.96 11.1806Q16.9061 11.2271 16.849 11.2697Q16.7919 11.3123 16.732 11.3507Q16.672 11.3892 16.6094 11.4232Q16.5469 11.4573 16.4821 11.4868Q16.4173 11.5163 16.3505 11.5412Q16.2837 11.566 16.2154 11.586Q16.147 11.6061 16.0774 11.6212Q16.0078 11.6363 15.9373 11.6464Q15.8668 11.6565 15.7958 11.6616Q15.7247 11.6666 15.6535 11.6666Z" id="Path-Copy" fill="#818D98" fill-rule="evenodd" stroke="none" />
  </g>
</svg>