<svg width="16" height="14" viewBox="0 0 16 14" fill="none" xmlns="http://www.w3.org/2000/svg">
<path d="M7.50875 0.583985C7.70162 0.0535652 8.45355 0.0586652 8.63922 0.591645L10.0008 4.49999L14.581 4.77724C15.1333 4.81067 15.3498 5.51016 14.9131 5.84979L11.5008 8.50328L12.7047 12.9782C12.8436 13.4943 12.2891 13.9207 11.8259 13.654L8.08474 11.5L4.29742 13.6806C3.84092 13.9435 3.29152 13.5325 3.41467 13.0204L4.50076 8.50328L1.20467 5.84448C0.778328 5.50057 0.997896 4.81215 1.54462 4.7786L6.08474 4.49999L7.50875 0.583985Z" fill="#DDE4E9"/>
<mask id="mask0_56_283" style="mask-type:alpha" maskUnits="userSpaceOnUse" x="0" y="0" width="16" height="14">
<path d="M7.50875 0.583985C7.70162 0.0535652 8.45355 0.0586652 8.63922 0.591645L10.0008 4.49999L14.581 4.77724C15.1333 4.81067 15.3498 5.51016 14.9131 5.84979L11.5008 8.50328L12.7047 12.9782C12.8436 13.4943 12.2891 13.9207 11.8259 13.654L8.08474 11.5L4.29742 13.6806C3.84092 13.9435 3.29152 13.5325 3.41467 13.0204L4.50076 8.50328L1.20467 5.84448C0.778328 5.50057 0.997896 4.81215 1.54462 4.7786L6.08474 4.49999L7.50875 0.583985Z" fill="#DDE4E9"/>
</mask>
<g mask="url(#mask0_56_283)">
<path d="M8 0H1V14H8V0Z" fill="#85BE05"/>
</g>
</svg>
