<?xml version="1.0" encoding="utf-8"?>
<svg width="41px" height="41px" viewBox="0 0 41 41" version="1.1" xmlns:xlink="http://www.w3.org/1999/xlink" xmlns="http://www.w3.org/2000/svg">
  <g id="lock-copy-9" transform="translate(0.40039062 0.4000244)">
    <path d="M20 40C31.0457 40 40 31.0457 40 20C40 8.9543 31.0457 0 20 0C8.9543 0 0 8.9543 0 20C0 31.0457 8.9543 40 20 40Z" id="Oval-Copy" fill="#DDE4E9" fill-rule="evenodd" stroke="none" />
    <g id="Group-10" transform="translate(14 10)">
      <g id="" fill="#818D98">
        <path d="M3.57143 8.43052L3.57143 6.28767C3.57143 4.71401 4.85491 3.43052 6.42857 3.43052C8.00223 3.43052 9.28572 4.71401 9.28572 6.28767L9.28572 8.43052L3.57143 8.43052ZM12.8571 9.50195C12.8571 8.91043 12.3772 8.43052 11.7857 8.43052L11.4286 8.43052L11.4286 6.28767C11.4286 3.54213 9.17411 1.28767 6.42857 1.28767C3.68304 1.28767 1.42857 3.54213 1.42857 6.28767L1.42857 8.43052L1.07143 8.43052C0.479911 8.43052 0 8.91043 0 9.50195L0 15.9305C0 16.522 0.479911 17.002 1.07143 17.002L11.7857 17.002C12.3772 17.002 12.8571 16.522 12.8571 15.9305L12.8571 9.50195Z" />
      </g>
    </g>
  </g>
</svg>